<?xml version="1.0" encoding="UTF-8"?><svg id="a" xmlns="http://www.w3.org/2000/svg" xmlns:xlink="http://www.w3.org/1999/xlink" viewBox="0 0 600.3 768.3"><defs><style>.g,.h{fill:none;}.g,.i,.j,.k,.l,.m,.n,.o,.p,.q,.r,.s,.t,.u{stroke-width:0px;}.h{stroke:#fff;stroke-miterlimit:10;stroke-width:2px;}.i{fill:#706f6f;}.j{fill:#1e364d;}.k{fill:#172a42;}.l{fill:#16283e;}.m{fill:#cbcdd1;}.n{fill:#ccced0;}.o{fill:#dbdddf;}.p{fill:#fff;}.q{fill:url(#b);}.r{fill:url(#c);}.s{fill:url(#e);}.t{fill:url(#f);}.u{fill:url(#d);}</style><linearGradient id="b" x1="449.7" y1="767.2" x2="449.7" y2="1.1" gradientUnits="userSpaceOnUse"><stop offset="0" stop-color="#d3d7d6"/><stop offset="1" stop-color="#e0dcdb"/></linearGradient><linearGradient id="c" x1="2299.2" y1="767.2" x2="2299.2" y2="1.1" gradientTransform="translate(2449.8) rotate(-180) scale(1 -1)" gradientUnits="userSpaceOnUse"><stop offset="0" stop-color="#d3d7d6"/><stop offset="1" stop-color="#e9eaec"/></linearGradient><linearGradient id="d" x1="160.6" y1="744.9" x2="160.6" y2="22" gradientUnits="userSpaceOnUse"><stop offset="0" stop-color="#172940"/><stop offset="1" stop-color="#293d56"/></linearGradient><linearGradient id="e" x1="282.8" y1="197.1" x2="282.8" y2="362.2" gradientUnits="userSpaceOnUse"><stop offset="0" stop-color="#fff"/><stop offset="1" stop-color="#a4a3a3"/></linearGradient><linearGradient id="f" x1="300.1" y1="380.2" x2="457.9" y2="380.2" gradientUnits="userSpaceOnUse"><stop offset="0" stop-color="#25446b"/><stop offset="1" stop-color="#172a42"/></linearGradient></defs><path class="i" d="m300.1,1l299.1,91.8v362.1c0,16.8-4.4,42.6-16.6,73.4-9.6,24.1-30.5,65.2-108.9,129.2-38.5,31.4-95.9,72.6-173.6,109.6-77.7-37-135.1-78.1-173.6-109.6-78.4-64.1-99.3-105.1-108.9-129.2-12.2-30.8-16.6-56.6-16.6-73.4V92.8L300.1,1m0-1h-.3C299.9,0,.7,91.9.7,91.9l-.7.2v362.8c0,20.2,6.1,47.2,16.7,73.8,4.7,11.8,12.2,28.1,28.8,49.9,18.8,24.7,45.9,51.6,80.4,79.8,52.5,42.9,111,79.8,173.8,109.7l.4.2.4-.2c62.9-29.9,121.4-66.8,173.8-109.7,34.5-28.2,61.6-55,80.4-79.8,16.6-21.8,24.1-38.1,28.8-49.9,10.6-26.7,16.7-53.6,16.7-73.8V92.1l-.7-.2L300.4,0h-.3Z"/><path class="q" d="m461.1,642.1c33.3-27.2,59.2-52.8,77-76.2,15-19.7,21.8-34.4,26-44.9,13.7-34.5,15.2-57.7,15.2-66.1V107.6L300.1,22V1.1l299.1,91.8v362.1c0,16.8-4.4,42.6-16.6,73.4-9.6,24.1-30.5,65.2-108.9,129.2-38.5,31.4-95.9,72.6-173.6,109.6v-22.3c.1,0,112.3-63,161-102.7Z"/><path class="r" d="m139.2,642.1c-33.3-27.2-59.2-52.8-77-76.2-15-19.7-21.8-34.4-26-44.9-13.7-34.5-15.2-57.7-15.2-66.1V107.6L300.1,22V1.1L1,92.9v362.1c0,16.8,4.4,42.6,16.6,73.4,9.6,24.1,30.5,65.2,108.9,129.2,38.5,31.4,95.9,72.6,173.6,109.6v-22.3c-.1,0-112.3-63-161-102.7Z"/><path class="l" d="m538.2,565.9c15-19.7,21.8-34.4,26-44.9,13.7-34.5,15.2-57.7,15.2-66.1V107.7L300.1,22v722.9c.1,0,112.3-63,161-102.7,33.3-27.2,59.2-52.8,77-76.2Z"/><path class="u" d="m62.1,565.9c-15-19.7-21.8-34.4-26-44.9-13.7-34.5-15.2-57.7-15.2-66.1V107.7L300.1,22v722.9c-.1,0-112.3-63-161-102.7-33.3-27.2-59.2-52.8-77-76.2Z"/><ellipse class="h" cx="300.1" cy="362.1" rx="230.1" ry="240.7"/><ellipse class="h" cx="300.1" cy="362.1" rx="209.3" ry="219"/><path class="p" d="m300.1,581.1c-.3,0-.6,0-.9,0v21.7c.3,0,.6,0,.9,0s.6,0,.9,0v-21.7c-.3,0-.6,0-.9,0Z"/><path class="p" d="m284.6,580.5l-1.4,21.7c.6,0,1.2,0,1.8.1l1.4-21.7c-.6,0-1.2,0-1.8-.1Z"/><path class="p" d="m270.1,578.9l-2.9,21.5c.6,0,1.2.2,1.8.3l2.9-21.5c-.6,0-1.2-.2-1.8-.3Z"/><path class="p" d="m255.7,576.2l-4.3,21.3c.6.1,1.2.3,1.8.4l4.3-21.3c-.6-.1-1.2-.3-1.8-.4Z"/><path class="p" d="m241.6,572.4l-5.7,20.9c.6.2,1.2.4,1.8.5l5.7-20.9c-.6-.2-1.2-.4-1.8-.5Z"/><path class="p" d="m227.7,567.6l-7.1,20.4c.6.2,1.2.4,1.7.7l7.1-20.4c-.6-.2-1.2-.4-1.7-.7Z"/><path class="p" d="m214.1,561.9l-8.5,19.9c.6.3,1.1.5,1.7.8l8.5-19.9c-.6-.3-1.1-.5-1.7-.8Z"/><path class="p" d="m201,555.1l-9.8,19.2c.5.3,1.1.6,1.6.9l9.8-19.2c-.5-.3-1.1-.6-1.6-.9Z"/><path class="p" d="m188.4,547.4l-11,18.4c.5.3,1,.7,1.6,1l11-18.4c-.5-.3-1-.7-1.6-1Z"/><path class="p" d="m176.4,538.7l-12.2,17.6c.5.4,1,.8,1.5,1.1l12.2-17.6c-.5-.4-1-.8-1.5-1.1Z"/><path class="p" d="m164.9,529.3l-13.4,16.7c.5.4.9.8,1.4,1.2l13.4-16.7c-.5-.4-.9-.8-1.4-1.2Z"/><path class="p" d="m154.1,519l-14.4,15.6c.4.4.9.9,1.3,1.3l14.4-15.6c-.4-.4-.9-.9-1.3-1.3Z"/><path class="p" d="m144,507.9l-15.4,14.6c.4.5.8,1,1.2,1.4l15.4-14.6c-.4-.5-.8-1-1.2-1.4Z"/><path class="p" d="m134.6,496.2l-16.4,13.4c.4.5.7,1,1.1,1.5l16.4-13.4c-.4-.5-.8-1-1.1-1.5Z"/><path class="p" d="m126.1,483.8l-17.2,12.2c.3.5.7,1.1,1,1.6l17.2-12.2c-.3-.5-.7-1.1-1-1.6Z"/><path class="p" d="m118.4,470.8l-18,10.9c.3.6.6,1.1.9,1.7l18-10.9c-.3-.6-.6-1.1-.9-1.7Z"/><path class="p" d="m111.6,457.3l-18.7,9.5c.3.6.5,1.1.8,1.7l18.7-9.5c-.3-.6-.6-1.1-.8-1.7Z"/><path class="p" d="m105.7,443.3l-19.3,8.1c.2.6.5,1.2.7,1.8l19.3-8.1c-.2-.6-.5-1.2-.7-1.8Z"/><path class="p" d="m100.7,428.9l-19.8,6.7c.2.6.4,1.2.6,1.8l19.8-6.7c-.2-.6-.4-1.2-.6-1.8Z"/><path class="p" d="m96.8,414.2l-20.2,5.3c.1.6.3,1.2.4,1.9l20.2-5.3c-.2-.6-.3-1.2-.4-1.9Z"/><path class="p" d="m93.8,399.2l-20.5,3.8c.1.6.2,1.3.3,1.9l20.5-3.8c-.1-.6-.2-1.3-.3-1.9Z"/><path class="p" d="m91.9,384.1l-20.7,2.3c0,.6.1,1.3.2,1.9l20.7-2.3c0-.6-.1-1.3-.2-1.9Z"/><path class="p" d="m90.9,368.8l-20.8.8c0,.6,0,1.3,0,1.9l20.8-.8c0-.6,0-1.3,0-1.9Z"/><path class="p" d="m91,353.5l-20.8-.8c0,.6,0,1.3,0,1.9l20.8.8c0-.6,0-1.3,0-1.9Z"/><path class="p" d="m92.1,338.3l-20.7-2.3c0,.6-.1,1.3-.2,1.9l20.7,2.3c0-.6.1-1.3.2-1.9Z"/><path class="p" d="m94.1,323.2l-20.5-3.8c-.1.6-.2,1.3-.3,1.9l20.5,3.8c.1-.6.2-1.3.3-1.9Z"/><path class="p" d="m97.2,308.2l-20.2-5.3c-.2.6-.3,1.2-.4,1.9l20.2,5.3c.1-.6.3-1.2.4-1.9Z"/><path class="p" d="m101.3,293.5l-19.8-6.7c-.2.6-.4,1.2-.6,1.8l19.8,6.7c.2-.6.4-1.2.6-1.8Z"/><path class="p" d="m106.4,279.2l-19.3-8.1c-.2.6-.5,1.2-.7,1.8l19.3,8.1c.2-.6.5-1.2.7-1.8Z"/><path class="p" d="m112.4,265.3l-18.7-9.5c-.3.6-.6,1.1-.8,1.7l18.7,9.5c.3-.6.5-1.1.8-1.7Z"/><path class="p" d="m119.3,251.8l-18-10.9c-.3.6-.6,1.1-.9,1.7l18,10.9c.3-.6.6-1.1.9-1.7Z"/><path class="p" d="m127.1,238.9l-17.2-12.2c-.3.5-.7,1.1-1,1.6l17.2,12.2c.3-.5.7-1.1,1-1.6Z"/><path class="p" d="m135.8,226.5l-16.4-13.4c-.4.5-.8,1-1.1,1.5l16.4,13.4c.4-.5.7-1,1.1-1.5Z"/><path class="p" d="m145.2,214.9l-15.4-14.6c-.4.5-.8,1-1.2,1.4l15.4,14.6c.4-.5.8-1,1.2-1.4Z"/><path class="p" d="m155.4,203.9l-14.4-15.6c-.4.4-.9.9-1.3,1.3l14.4,15.6c.4-.4.9-.9,1.3-1.3Z"/><path class="p" d="m166.3,193.8l-13.4-16.7c-.5.4-.9.8-1.4,1.2l13.4,16.7c.5-.4.9-.8,1.4-1.2Z"/><path class="p" d="m177.9,184.4l-12.2-17.6c-.5.4-1,.8-1.5,1.1l12.2,17.6c.5-.4,1-.8,1.5-1.1Z"/><path class="p" d="m190,175.9l-11-18.4c-.5.3-1,.7-1.6,1l11,18.4c.5-.3,1-.7,1.6-1Z"/><path class="p" d="m202.7,168.3l-9.8-19.2c-.5.3-1.1.6-1.6.9l9.8,19.2c.5-.3,1.1-.6,1.6-.9Z"/><path class="p" d="m215.8,161.6l-8.5-19.9c-.6.3-1.1.5-1.7.8l8.5,19.9c.6-.3,1.1-.5,1.7-.8Z"/><path class="p" d="m229.4,156l-7.1-20.4c-.6.2-1.2.4-1.7.7l7.1,20.4c.6-.2,1.2-.4,1.7-.7Z"/><path class="p" d="m243.3,151.3l-5.7-20.9c-.6.2-1.2.4-1.8.5l5.7,20.9c.6-.2,1.2-.4,1.8-.5Z"/><path class="p" d="m257.5,147.7l-4.3-21.3c-.6.1-1.2.3-1.8.4l4.3,21.3c.6-.1,1.2-.3,1.8-.4Z"/><path class="p" d="m271.9,145.1l-2.9-21.5c-.6,0-1.2.2-1.8.3l2.9,21.5c.6,0,1.2-.2,1.8-.3Z"/><path class="p" d="m286.5,143.6l-1.4-21.7c-.6,0-1.2,0-1.8.1l1.4,21.7c.6,0,1.2,0,1.8-.1Z"/><path class="p" d="m300.1,143.1c.3,0,.6,0,.9,0v-21.7c-.3,0-.6,0-.9,0s-.6,0-.9,0v21.7c.3,0,.6,0,.9,0Z"/><path class="p" d="m315.7,143.7l1.4-21.7c-.6,0-1.2,0-1.8-.1l-1.4,21.7c.6,0,1.2,0,1.8.1Z"/><path class="p" d="m330.2,145.4l2.9-21.5c-.6,0-1.2-.2-1.8-.3l-2.9,21.5c.6,0,1.2.2,1.8.3Z"/><path class="p" d="m344.6,148.1l4.3-21.3c-.6-.1-1.2-.3-1.8-.4l-4.3,21.3c.6.1,1.2.3,1.8.4Z"/><path class="p" d="m358.7,151.8l5.7-20.9c-.6-.2-1.2-.4-1.8-.5l-5.7,20.9c.6.2,1.2.4,1.8.5Z"/><path class="p" d="m372.6,156.6l7.1-20.4c-.6-.2-1.2-.4-1.7-.7l-7.1,20.4c.6.2,1.2.4,1.7.7Z"/><path class="p" d="m386.1,162.4l8.5-19.9c-.6-.3-1.1-.5-1.7-.8l-8.5,19.9c.6.3,1.1.5,1.7.8Z"/><path class="p" d="m399.2,169.2l9.8-19.2c-.5-.3-1.1-.6-1.6-.9l-9.8,19.2c.5.3,1.1.6,1.6.9Z"/><path class="p" d="m411.9,176.9l11-18.4c-.5-.3-1-.7-1.6-1l-11,18.4c.5.3,1,.7,1.6,1Z"/><path class="p" d="m423.9,185.5l12.2-17.6c-.5-.4-1-.8-1.5-1.1l-12.2,17.6c.5.4,1,.8,1.5,1.1Z"/><path class="p" d="m435.4,195l13.4-16.7c-.5-.4-.9-.8-1.4-1.2l-13.4,16.7c.5.4.9.8,1.4,1.2Z"/><path class="p" d="m446.2,205.3l14.4-15.6c-.4-.4-.9-.9-1.3-1.3l-14.4,15.6c.4.4.9.9,1.3,1.3Z"/><path class="p" d="m456.3,216.3l15.4-14.6c-.4-.5-.8-1-1.2-1.4l-15.4,14.6c.4.5.8,1,1.2,1.4Z"/><path class="p" d="m465.7,228.1l16.4-13.4c-.4-.5-.7-1-1.1-1.5l-16.4,13.4c.4.5.8,1,1.1,1.5Z"/><path class="p" d="m474.2,240.5l17.2-12.2c-.3-.5-.7-1.1-1-1.6l-17.2,12.2c.3.5.7,1.1,1,1.6Z"/><path class="p" d="m481.9,253.5l18-10.9c-.3-.6-.6-1.1-.9-1.7l-18,10.9c.3.6.6,1.1.9,1.7Z"/><path class="p" d="m488.7,267l18.7-9.5c-.3-.6-.5-1.1-.8-1.7l-18.7,9.5c.3.6.6,1.1.8,1.7Z"/><path class="p" d="m494.6,281l19.3-8.1c-.2-.6-.5-1.2-.7-1.8l-19.3,8.1c.2.6.5,1.2.7,1.8Z"/><path class="p" d="m499.5,295.4l19.8-6.7c-.2-.6-.4-1.2-.6-1.8l-19.8,6.7c.2.6.4,1.2.6,1.8Z"/><path class="p" d="m503.5,310.1l20.2-5.3c-.1-.6-.3-1.2-.4-1.9l-20.2,5.3c.2.6.3,1.2.4,1.9Z"/><path class="p" d="m506.5,325l20.5-3.8c-.1-.6-.2-1.3-.3-1.9l-20.5,3.8c.1.6.2,1.3.3,1.9Z"/><path class="p" d="m508.4,340.2l20.7-2.3c0-.6-.1-1.3-.2-1.9l-20.7,2.3c0,.6.1,1.3.2,1.9Z"/><path class="p" d="m509.4,355.5l20.8-.8c0-.6,0-1.3,0-1.9l-20.8.8c0,.6,0,1.3,0,1.9Z"/><path class="p" d="m509.4,368.8c0,.6,0,1.3,0,1.9l20.8.8c0-.6,0-1.3,0-1.9l-20.8-.8Z"/><path class="p" d="m508.2,386l20.7,2.3c0-.6.1-1.3.2-1.9l-20.7-2.3c0,.6-.1,1.3-.2,1.9Z"/><path class="p" d="m506.2,401.1l20.5,3.8c.1-.6.2-1.3.3-1.9l-20.5-3.8c-.1.6-.2,1.3-.3,1.9Z"/><path class="p" d="m503.1,416.1l20.2,5.3c.2-.6.3-1.2.4-1.9l-20.2-5.3c-.1.6-.3,1.2-.4,1.9Z"/><path class="p" d="m499,430.7l19.8,6.7c.2-.6.4-1.2.6-1.8l-19.8-6.7c-.2.6-.4,1.2-.6,1.8Z"/><path class="p" d="m493.9,445.1l19.3,8.1c.2-.6.5-1.2.7-1.8l-19.3-8.1c-.2.6-.5,1.2-.7,1.8Z"/><path class="p" d="m487.9,459l18.7,9.5c.3-.6.6-1.1.8-1.7l-18.7-9.5c-.3.6-.5,1.1-.8,1.7Z"/><path class="p" d="m481,472.5l18,10.9c.3-.6.6-1.1.9-1.7l-18-10.9c-.3.6-.6,1.1-.9,1.7Z"/><path class="p" d="m473.2,485.4l17.2,12.2c.3-.5.7-1.1,1-1.6l-17.2-12.2c-.3.5-.7,1.1-1,1.6Z"/><path class="p" d="m464.5,497.7l16.4,13.4c.4-.5.8-1,1.1-1.5l-16.4-13.4c-.4.5-.7,1-1.1,1.5Z"/><path class="p" d="m455.1,509.4l15.4,14.6c.4-.5.8-1,1.2-1.4l-15.4-14.6c-.4.5-.8,1-1.2,1.4Z"/><path class="p" d="m444.9,520.3l14.4,15.6c.4-.4.9-.9,1.3-1.3l-14.4-15.6c-.4.4-.9.9-1.3,1.3Z"/><path class="p" d="m434,530.5l13.4,16.7c.5-.4.9-.8,1.4-1.2l-13.4-16.7c-.5.4-.9.8-1.4,1.2Z"/><path class="p" d="m422.4,539.9l12.2,17.6c.5-.4,1-.8,1.5-1.1l-12.2-17.6c-.5.4-1,.8-1.5,1.1Z"/><path class="p" d="m410.3,548.4l11,18.4c.5-.3,1-.7,1.6-1l-11-18.4c-.5.3-1,.7-1.6,1Z"/><path class="p" d="m397.6,556l9.8,19.2c.5-.3,1.1-.6,1.6-.9l-9.8-19.2c-.5.3-1.1.6-1.6.9Z"/><path class="p" d="m384.5,562.6l8.5,19.9c.6-.3,1.1-.5,1.7-.8l-8.5-19.9c-.6.3-1.1.5-1.7.8Z"/><path class="p" d="m370.9,568.3l7.1,20.4c.6-.2,1.2-.4,1.7-.7l-7.1-20.4c-.6.2-1.2.4-1.7.7Z"/><path class="p" d="m357,573l5.7,20.9c.6-.2,1.2-.4,1.8-.5l-5.7-20.9c-.6.2-1.2.4-1.8.5Z"/><path class="p" d="m342.8,576.6l4.3,21.3c.6-.1,1.2-.3,1.8-.4l-4.3-21.3c-.6.1-1.2.3-1.8.4Z"/><path class="p" d="m328.4,579.1l2.9,21.5c.6,0,1.2-.2,1.8-.3l-2.9-21.5c-.6,0-1.2.2-1.8.3Z"/><path class="p" d="m313.8,580.7l1.4,21.7c.6,0,1.2,0,1.8-.1l-1.4-21.7c-.6,0-1.2,0-1.8.1Z"/><path class="p" d="m300.1,582.1c-.9,0-1.8,0-2.8,0v19.8c.9,0,1.8,0,2.8,0s1.8,0,2.8,0v-19.8c-.9,0-1.8,0-2.8,0Z"/><path class="p" d="m225.6,567.9l-6.5,18.6c1.7.7,3.5,1.3,5.2,2l6.5-18.6c-1.7-.6-3.5-1.3-5.2-2Z"/><path class="p" d="m162.9,528.8l-12.2,15.2c1.4,1.3,2.8,2.5,4.2,3.7l12.2-15.2c-1.4-1.2-2.8-2.5-4.2-3.7Z"/><path class="p" d="m116.6,469.7l-16.4,9.9c.9,1.7,1.8,3.3,2.8,5l16.4-9.9c-.9-1.7-1.9-3.3-2.8-5Z"/><path class="p" d="m92.6,397.5l-18.7,3.4c.3,1.9.6,3.8.9,5.7l18.7-3.4c-.3-1.9-.7-3.8-.9-5.7Z"/><path class="p" d="m93.5,321.1l-18.7-3.4c-.3,1.9-.7,3.8-.9,5.7l18.7,3.4c.3-1.9.6-3.8.9-5.7Z"/><path class="p" d="m119.4,249.6l-16.4-9.9c-.9,1.7-1.9,3.3-2.8,5l16.4,9.9c.9-1.7,1.8-3.3,2.8-5Z"/><path class="p" d="m167.1,191.8l-12.2-15.2c-1.4,1.2-2.8,2.5-4.2,3.7l12.2,15.2c1.4-1.3,2.8-2.5,4.2-3.7Z"/><path class="p" d="m230.8,154.4l-6.5-18.6c-1.7.6-3.5,1.3-5.2,2l6.5,18.6c1.7-.7,3.5-1.3,5.2-2Z"/><path class="p" d="m300.1,142.2c.9,0,1.8,0,2.8,0v-19.8c-.9,0-1.8,0-2.8,0s-1.8,0-2.8,0v19.8c.9,0,1.8,0,2.8,0Z"/><path class="p" d="m374.7,156.3l6.5-18.6c-1.7-.7-3.5-1.3-5.2-2l-6.5,18.6c1.7.6,3.5,1.3,5.2,2Z"/><path class="p" d="m437.4,195.5l12.2-15.2c-1.4-1.3-2.8-2.5-4.2-3.7l-12.2,15.2c1.4,1.2,2.8,2.5,4.2,3.7Z"/><path class="p" d="m483.7,254.6l16.4-9.9c-.9-1.7-1.8-3.3-2.8-5l-16.4,9.9c.9,1.7,1.9,3.3,2.8,5Z"/><path class="p" d="m507.7,326.8l18.7-3.4c-.3-1.9-.6-3.8-.9-5.7l-18.7,3.4c.3,1.9.7,3.8.9,5.7Z"/><path class="p" d="m506.7,403.2l18.7,3.4c.3-1.9.7-3.8.9-5.7l-18.7-3.4c-.3,1.9-.6,3.8-.9,5.7Z"/><path class="p" d="m480.9,474.6l16.4,9.9c.9-1.7,1.9-3.3,2.8-5l-16.4-9.9c-.9,1.7-1.8,3.3-2.8,5Z"/><path class="p" d="m433.2,532.5l12.2,15.2c1.4-1.2,2.8-2.5,4.2-3.7l-12.2-15.2c-1.4,1.3-2.8,2.5-4.2,3.7Z"/><path class="p" d="m369.5,569.9l6.5,18.6c1.7-.6,3.5-1.3,5.2-2l-6.5-18.6c-1.7.7-3.5,1.3-5.2,2Z"/><path class="g" d="m236.8,281.6l35.3,44-1.4,1.2-35.2-43.9c-21.4,19.1-34.9,47.5-34.9,79.3s13.5,60.1,34.9,79.3l35.2-43.9,1.4,1.2-35.3,44c17.2,14.9,39.3,23.8,63.4,23.8s46.1-8.9,63.4-23.8l-35.3-44,1.4-1.2,35.2,43.9c21.4-19.1,34.9-47.5,34.9-79.3s-13.5-60.1-34.9-79.3l-35.2,43.9-1.4-1.2,35.3-44c-17.2-14.9-39.3-23.8-63.4-23.8s-46.1,8.9-63.4,23.8Z"/><path class="p" d="m300.1,220.1c32.8,0,63,12.3,86.5,32.7l10.8-13.5c-26.4-22.9-60.3-36.7-97.3-36.7s-70.9,13.8-97.3,36.7l10.8,13.5c23.5-20.4,53.7-32.7,86.5-32.7Z"/><path class="p" d="m200.4,362.1c0-31.7,13.5-60.1,34.9-79.3l-21.9-27.3c-28.8,25.7-47.2,64-47.2,106.6s18.3,80.9,47.2,106.6l21.9-27.3c-21.4-19.1-34.9-47.5-34.9-79.3Z"/><path class="p" d="m435.9,362.1c0,43.2-18.6,82-47.8,108.1l10.8,13.5c32.9-29.3,53.8-72.9,53.8-121.6s-20.9-92.3-53.8-121.6l-10.8,13.5c29.2,26.1,47.8,64.9,47.8,108.1Z"/><path class="p" d="m399.8,362.1c0,31.7-13.5,60.1-34.9,79.3l21.9,27.3c28.8-25.7,47.2-64,47.2-106.6s-18.3-80.9-47.2-106.6l-21.9,27.3c21.4,19.1,34.9,47.5,34.9,79.3Z"/><path class="p" d="m300.1,257.8c24.1,0,46.1,8.9,63.4,23.8l21.9-27.3c-23.2-20.1-52.9-32.2-85.3-32.2s-62.1,12.1-85.3,32.2l21.9,27.3c17.2-14.9,39.3-23.8,63.4-23.8Z"/><path class="p" d="m300.1,466.4c-24.1,0-46.1-8.9-63.4-23.8l-21.9,27.3c23.2,20.1,52.9,32.2,85.3,32.2s62.1-12.1,85.3-32.2l-21.9-27.3c-17.2,14.9-39.3,23.8-63.4,23.8Z"/><path class="p" d="m164.4,362.1c0-43.2,18.6-82,47.8-108.1l-10.8-13.5c-32.9,29.3-53.8,72.9-53.8,121.6s20.9,92.3,53.8,121.6l10.8-13.5c-29.2-26.1-47.8-64.9-47.8-108.1Z"/><path class="p" d="m300.1,504.1c-32.8,0-63-12.3-86.5-32.7l-10.8,13.5c26.4,22.9,60.3,36.7,97.3,36.7s70.9-13.8,97.3-36.7l-10.8-13.5c-23.5,20.4-53.7,32.7-86.5,32.7Z"/><path class="k" d="m235.4,441.4l-21.9,27.3c.5.4.9.8,1.4,1.2l21.9-27.3c-.5-.4-.9-.8-1.4-1.2Z"/><path class="k" d="m212.2,470.2l-10.8,13.5c.5.4.9.8,1.4,1.2l10.8-13.5c-.5-.4-.9-.8-1.4-1.2Z"/><path class="k" d="m213.7,252.8l-10.8-13.5c-.5.4-.9.8-1.4,1.2l10.8,13.5c.5-.4.9-.8,1.4-1.2Z"/><path class="k" d="m236.8,281.6l-21.9-27.3c-.5.4-.9.8-1.4,1.2l21.9,27.3c.5-.4.9-.8,1.4-1.2Z"/><path class="k" d="m363.5,281.6c.5.4.9.8,1.4,1.2l21.9-27.3c-.5-.4-.9-.8-1.4-1.2l-21.9,27.3Z"/><path class="k" d="m388,254l10.8-13.5c-.5-.4-.9-.8-1.4-1.2l-10.8,13.5c.5.4.9.8,1.4,1.2Z"/><path class="k" d="m388,470.2c-.5.4-.9.8-1.4,1.2l10.8,13.5c.5-.4.9-.8,1.4-1.2l-10.8-13.5Z"/><path class="k" d="m363.5,442.7l21.9,27.3c.5-.4.9-.8,1.4-1.2l-21.9-27.3c-.5.4-.9.8-1.4,1.2Z"/><path class="k" d="m166.3,362.1c0-42.7,18.3-80.9,47.2-106.6l-1.2-1.5c-29.2,26.1-47.8,64.9-47.8,108.1s18.6,82,47.8,108.1l1.2-1.5c-28.8-25.7-47.2-64-47.2-106.6Z"/><path class="k" d="m300.1,502.2c-32.4,0-62.1-12.1-85.3-32.2l-1.2,1.5c23.5,20.4,53.7,32.7,86.5,32.7s63-12.3,86.5-32.7l-1.2-1.5c-23.2,20.1-52.9,32.2-85.3,32.2Z"/><path class="k" d="m300.1,222.1c32.4,0,62.1,12.1,85.3,32.2l1.2-1.5c-23.5-20.4-53.7-32.7-86.5-32.7s-63,12.3-86.5,32.7l1.2,1.5c23.2-20.1,52.9-32.2,85.3-32.2Z"/><path class="k" d="m435.9,362.1c0-43.2-18.6-82-47.8-108.1l-1.2,1.5c28.8,25.7,47.2,64,47.2,106.6s-18.3,80.9-47.2,106.6l1.2,1.5c29.2-26.1,47.8-64.9,47.8-108.1Z"/><path class="k" d="m213.4,468.8l-1.2,1.5c.5.4.9.8,1.4,1.2l1.2-1.5c-.5-.4-.9-.8-1.4-1.2Z"/><path class="k" d="m214.8,254.3l-1.2-1.5c-.5.4-.9.8-1.4,1.2l1.2,1.5c.5-.4.9-.8,1.4-1.2Z"/><path class="k" d="m386.9,255.5l1.2-1.5c-.5-.4-.9-.8-1.4-1.2l-1.2,1.5c.5.4.9.8,1.4,1.2Z"/><path class="k" d="m385.5,470l1.2,1.5c.5-.4.9-.8,1.4-1.2l-1.2-1.5c-.5.4-.9.8-1.4,1.2Z"/><path class="g" d="m562.1,362.1c0-73.2-27.2-142-76.7-193.8-5.2-5.4-10.6-10.6-16.1-15.5l-70.4,87.7c-.5-.4-.9-.8-1.4-1.2l70.4-87.7c-47-41.1-105.7-63.5-167.7-63.5s-120.7,22.4-167.7,63.5l70.4,87.7c-.5.4-.9.8-1.4,1.2l-70.4-87.7c-5.5,4.9-10.9,10.1-16.1,15.5-49.5,51.8-76.7,120.6-76.7,193.8s27.2,142,76.7,193.8c5.2,5.4,10.6,10.6,16.1,15.5l70.4-87.7c.5.4.9.8,1.4,1.2l-70.4,87.7c47,41.1,105.7,63.5,167.7,63.5s120.7-22.4,167.7-63.5l-70.4-87.7c.5-.4.9-.8,1.4-1.2l70.4,87.7c5.5-4.9,10.9-10.1,16.1-15.5,49.5-51.8,76.7-120.6,76.7-193.8Z"/><path class="p" d="m131.1,571.4l-1.2,1.5c.5.4.9.8,1.4,1.2l1.2-1.5c-.5-.4-.9-.8-1.4-1.2Z"/><path class="p" d="m132.5,151.6l-1.2-1.5c-.5.4-.9.8-1.4,1.2l1.2,1.5c.5-.4.9-.8,1.4-1.2Z"/><path class="p" d="m469.2,152.8l1.2-1.5c-.5-.4-.9-.8-1.4-1.2l-1.2,1.5c.5.4.9.8,1.4,1.2Z"/><path class="p" d="m469.2,571.4c-.5.4-.9.8-1.4,1.2l1.2,1.5c.5-.4.9-.8,1.4-1.2l-1.2-1.5Z"/><path class="p" d="m201.4,483.7l-70.4,87.7c.5.4.9.8,1.4,1.2l70.4-87.7c-.5-.4-.9-.8-1.4-1.2Z"/><path class="p" d="m202.8,239.3l-70.4-87.7c-.5.4-.9.8-1.4,1.2l70.4,87.7c.5-.4.9-.8,1.4-1.2Z"/><path class="p" d="m398.9,240.6l70.4-87.7c-.5-.4-.9-.8-1.4-1.2l-70.4,87.7c.5.4.9.8,1.4,1.2Z"/><path class="p" d="m397.4,485l70.4,87.7c.5-.4.9-.8,1.4-1.2l-70.4-87.7c-.5.4-.9.8-1.4,1.2Z"/><ellipse class="p" cx="131.1" cy="151.6" rx="6.5" ry="6.8"/><ellipse class="p" cx="467.8" cy="153.1" rx="6.5" ry="6.8"/><ellipse class="p" cx="470.4" cy="574.2" rx="6.5" ry="6.8"/><ellipse class="p" cx="131.3" cy="574.2" rx="6.5" ry="6.8"/><path class="k" d="m300.5,166.5l40.4,152.9,146.2,42.3-146.2,43.1-40.4,153-41.2-153-146.2-43.1,146.2-42.3,41.2-152.9m0-10.6l-2.7,9.9-40.7,151.4-144.7,41.9-9.4,2.7,9.4,2.8,144.7,42.6,40.7,151.4,2.7,9.9,2.6-9.9,40-151.4,144.7-42.6,9.4-2.8-9.4-2.7-144.7-41.8-40-151.4-2.6-9.9h0Z"/><path class="p" d="m340.9,319.5l-40.4-152.9-41.2,152.9-146.2,42.3,146.2,43.1,41.2,153,40.4-153,146.2-43.1-146.2-42.3Zm-6.1,78.9l-34.3,128.8-34.6-128.8-123.3-36.3,123.1-36.3,34.6-128.8,34.3,128.8,123.1,36.3-122.9,36.3Z"/><polygon class="k" points="300.1 362.1 334.8 398.3 300.1 527.1 300.1 362.1"/><polygon class="m" points="300.1 362.1 265.5 398.3 300.1 527.1 300.1 362.1"/><polygon class="k" points="300.1 362.2 334.8 325.9 300.1 197.1 300.1 362.2"/><polygon class="s" points="300.1 362.2 265.5 325.9 300.1 197.1 300.1 362.2"/><polygon class="n" points="300.1 362.1 334.8 325.8 457.9 362.1 300.1 362.1"/><polygon class="t" points="300.1 362.1 334.8 398.3 457.9 362.1 300.1 362.1"/><polygon class="o" points="300.1 362.1 265.5 325.8 142.4 362.1 300.1 362.1"/><polygon class="j" points="300.1 362.1 265.5 398.3 142.4 362.1 300.1 362.1"/></svg>